<svg width="40" height="40" viewBox="0 0 40 40" fill="none" xmlns="http://www.w3.org/2000/svg">
<g clip-path="url(#clip0_554_332)">
<g filter="url(#filter0_d_554_332)">
<path d="M37.728 16.9768L33 16.204C32.7232 15.2552 32.3448 14.3432 31.8712 13.48L34.6312 9.54638C34.8544 9.22878 34.816 8.79598 34.5416 8.52078L31.4304 5.41118C31.1528 5.13438 30.716 5.09838 30.3976 5.32798L26.5232 8.11278C25.652 7.63118 24.732 7.24878 23.7776 6.97118L22.9528 2.26238C22.8856 1.87998 22.5536 1.59998 22.1648 1.59998H17.7648C17.3728 1.59998 17.0384 1.88398 16.9752 2.27118L16.2104 6.95438C15.2504 7.23038 14.3288 7.60878 13.4608 8.08398L9.59676 5.32398C9.27756 5.09598 8.84316 5.13278 8.56556 5.40878L5.45596 8.51838C5.18156 8.79278 5.14316 9.22478 5.36636 9.54238L8.08556 13.4328C7.60156 14.3088 7.21596 15.236 6.93516 16.2008L2.27036 16.9776C1.88476 17.0416 1.60156 17.376 1.60156 17.7664V22.1664C1.60156 22.5544 1.87996 22.8864 2.26156 22.9544L6.92636 23.7816C7.20556 24.744 7.59116 25.6712 8.07676 26.5496L5.32396 30.4C5.09676 30.7176 5.13276 31.1536 5.40876 31.4312L8.51916 34.544C8.79356 34.8184 9.22636 34.8568 9.54396 34.6336L13.44 31.9048C14.3144 32.3856 15.2384 32.7672 16.196 33.044L16.9768 37.7328C17.04 38.1176 17.3736 38.4 17.7648 38.4H22.1648C22.5528 38.4 22.8848 38.1216 22.952 37.74L23.788 33.028C24.7472 32.7456 25.6664 32.3616 26.532 31.88L30.456 34.6328C30.7744 34.8576 31.2064 34.8184 31.4816 34.544L34.592 31.4312C34.8688 31.1536 34.9048 30.716 34.6752 30.3976L31.8768 26.512C32.3512 25.648 32.728 24.7344 33.0024 23.7856L37.7368 22.9544C38.12 22.8872 38.3984 22.5544 38.3984 22.1664V17.7664C38.3992 17.3744 38.1152 17.04 37.728 16.9768ZM20 25.6C16.9072 25.6 14.4 23.0928 14.4 20C14.4 16.9072 16.9072 14.4 20 14.4C23.0928 14.4 25.6 16.9072 25.6 20C25.6 23.0928 23.0928 25.6 20 25.6Z" fill="url(#paint0_linear_554_332)"/>
</g>
</g>
<defs>
<filter id="filter0_d_554_332" x="-2.39844" y="1.59998" width="44.7969" height="44.8" filterUnits="userSpaceOnUse" color-interpolation-filters="sRGB">
<feFlood flood-opacity="0" result="BackgroundImageFix"/>
<feColorMatrix in="SourceAlpha" type="matrix" values="0 0 0 0 0 0 0 0 0 0 0 0 0 0 0 0 0 0 127 0" result="hardAlpha"/>
<feOffset dy="4"/>
<feGaussianBlur stdDeviation="2"/>
<feComposite in2="hardAlpha" operator="out"/>
<feColorMatrix type="matrix" values="0 0 0 0 0 0 0 0 0 0 0 0 0 0 0 0 0 0 0.25 0"/>
<feBlend mode="normal" in2="BackgroundImageFix" result="effect1_dropShadow_554_332"/>
<feBlend mode="normal" in="SourceGraphic" in2="effect1_dropShadow_554_332" result="shape"/>
</filter>
<linearGradient id="paint0_linear_554_332" x1="20" y1="38.4" x2="20.0004" y2="1.59997" gradientUnits="userSpaceOnUse">
<stop stop-color="#5E5E5E"/>
<stop offset="1" stop-color="#A6A6A6"/>
</linearGradient>
<clipPath id="clip0_554_332">
<rect width="40" height="40" fill="white"/>
</clipPath>
</defs>
</svg>
